TITLE ""
FILE "P1Q_t_0439-0448.mp3" MP3
  TRACK 01 AUDIO
    TITLE "P1Q_t_0439-0448_01"
    INDEX 01 00:00:00
  TRACK 02 AUDIO
    TITLE "P1Q_t_0439-0448_02"
    INDEX 01 00:01:14
  TRACK 03 AUDIO
    TITLE "P1Q_t_0439-0448_03"
    INDEX 01 00:01:35
  TRACK 04 AUDIO
    TITLE "P1Q_t_0439-0448_04"
    INDEX 01 00:04:45
  TRACK 05 AUDIO
    TITLE "P1Q_t_0439-0448_05"
    INDEX 01 00:04:65
  TRACK 06 AUDIO
    TITLE "P1Q_t_0439-0448_06"
    INDEX 01 00:09:15
  TRACK 07 AUDIO
    TITLE "P1Q_t_0439-0448_07"
    INDEX 01 00:09:60
  TRACK 08 AUDIO
    TITLE "P1Q_t_0439-0448_08"
    INDEX 01 00:11:26
  TRACK 09 AUDIO
    TITLE "P1Q_t_0439-0448_09"
    INDEX 01 00:11:49
  TRACK 10 AUDIO
    TITLE "P1Q_t_0439-0448_10"
    INDEX 01 00:12:57
  TRACK 11 AUDIO
    TITLE "P1Q_t_0439-0448_11"
    INDEX 01 00:13:01
  TRACK 12 AUDIO
    TITLE "P1Q_t_0439-0448_12"
    INDEX 01 00:17:56
  TRACK 13 AUDIO
    TITLE "P1Q_t_0439-0448_13"
    INDEX 01 00:18:26
  TRACK 14 AUDIO
    TITLE "P1Q_t_0439-0448_14"
    INDEX 01 00:19:45
  TRACK 15 AUDIO
    TITLE "P1Q_t_0439-0448_15"
    INDEX 01 00:19:66
  TRACK 16 AUDIO
    TITLE "P1Q_t_0439-0448_16"
    INDEX 01 00:22:02
  TRACK 17 AUDIO
    TITLE "P1Q_t_0439-0448_17"
    INDEX 01 00:22:22
  TRACK 18 AUDIO
    TITLE "P1Q_t_0439-0448_18"
    INDEX 01 00:26:53
  TRACK 19 AUDIO
    TITLE "P1Q_t_0439-0448_19"
    INDEX 01 00:27:25
  TRACK 20 AUDIO
    TITLE "P1Q_t_0439-0448_20"
    INDEX 01 00:28:54
  TRACK 21 AUDIO
    TITLE "P1Q_t_0439-0448_21"
    INDEX 01 00:29:02
  TRACK 22 AUDIO
    TITLE "P1Q_t_0439-0448_22"
    INDEX 01 00:31:15
  TRACK 23 AUDIO
    TITLE "P1Q_t_0439-0448_23"
    INDEX 01 00:31:34
  TRACK 24 AUDIO
    TITLE "P1Q_t_0439-0448_24"
    INDEX 01 00:35:69
  TRACK 25 AUDIO
    TITLE "P1Q_t_0439-0448_25"
    INDEX 01 00:36:45
  TRACK 26 AUDIO
    TITLE "P1Q_t_0439-0448_26"
    INDEX 01 00:37:64
  TRACK 27 AUDIO
    TITLE "P1Q_t_0439-0448_27"
    INDEX 01 00:38:09
  TRACK 28 AUDIO
    TITLE "P1Q_t_0439-0448_28"
    INDEX 01 00:40:63
  TRACK 29 AUDIO
    TITLE "P1Q_t_0439-0448_29"
    INDEX 01 00:41:07
  TRACK 30 AUDIO
    TITLE "P1Q_t_0439-0448_30"
    INDEX 01 00:45:38
  TRACK 31 AUDIO
    TITLE "P1Q_t_0439-0448_31"
    INDEX 01 00:46:12
  TRACK 32 AUDIO
    TITLE "P1Q_t_0439-0448_32"
    INDEX 01 00:47:41
  TRACK 33 AUDIO
    TITLE "P1Q_t_0439-0448_33"
    INDEX 01 00:47:61
  TRACK 34 AUDIO
    TITLE "P1Q_t_0439-0448_34"
    INDEX 01 00:50:08
  TRACK 35 AUDIO
    TITLE "P1Q_t_0439-0448_35"
    INDEX 01 00:50:30
  TRACK 36 AUDIO
    TITLE "P1Q_t_0439-0448_36"
    INDEX 01 00:55:47
  TRACK 37 AUDIO
    TITLE "P1Q_t_0439-0448_37"
    INDEX 01 00:56:17
  TRACK 38 AUDIO
    TITLE "P1Q_t_0439-0448_38"
    INDEX 01 00:57:36
  TRACK 39 AUDIO
    TITLE "P1Q_t_0439-0448_39"
    INDEX 01 00:57:55
  TRACK 40 AUDIO
    TITLE "P1Q_t_0439-0448_40"
    INDEX 01 01:01:41
  TRACK 41 AUDIO
    TITLE "P1Q_t_0439-0448_41"
    INDEX 01 01:01:61
  TRACK 42 AUDIO
    TITLE "P1Q_t_0439-0448_42"
    INDEX 01 01:05:59
  TRACK 43 AUDIO
    TITLE "P1Q_t_0439-0448_43"
    INDEX 01 01:06:29
  TRACK 44 AUDIO
    TITLE "P1Q_t_0439-0448_44"
    INDEX 01 01:07:54
  TRACK 45 AUDIO
    TITLE "P1Q_t_0439-0448_45"
    INDEX 01 01:07:75
  TRACK 46 AUDIO
    TITLE "P1Q_t_0439-0448_46"
    INDEX 01 01:10:40
  TRACK 47 AUDIO
    TITLE "P1Q_t_0439-0448_47"
    INDEX 01 01:10:62
  TRACK 48 AUDIO
    TITLE "P1Q_t_0439-0448_48"
    INDEX 01 01:13:56
  TRACK 49 AUDIO
    TITLE "P1Q_t_0439-0448_49"
    INDEX 01 01:14:26
  TRACK 50 AUDIO
    TITLE "P1Q_t_0439-0448_50"
    INDEX 01 01:15:53
  TRACK 51 AUDIO
    TITLE "P1Q_t_0439-0448_51"
    INDEX 01 01:15:73
  TRACK 52 AUDIO
    TITLE "P1Q_t_0439-0448_52"
    INDEX 01 01:18:20
  TRACK 53 AUDIO
    TITLE "P1Q_t_0439-0448_53"
    INDEX 01 01:18:42
  TRACK 54 AUDIO
    TITLE "P1Q_t_0439-0448_54"
    INDEX 01 01:22:55
  TRACK 55 AUDIO
    TITLE "P1Q_t_0439-0448_55"
    INDEX 01 01:23:27
  TRACK 56 AUDIO
    TITLE "P1Q_t_0439-0448_56"
    INDEX 01 01:24:37
  TRACK 57 AUDIO
    TITLE "P1Q_t_0439-0448_57"
    INDEX 01 01:24:58
  TRACK 58 AUDIO
    TITLE "P1Q_t_0439-0448_58"
    INDEX 01 01:28:58
  TRACK 59 AUDIO
    TITLE "P1Q_t_0439-0448_59"
    INDEX 01 01:29:02
  TRACK 60 AUDIO
    TITLE "P1Q_t_0439-0448_60"
    INDEX 01 01:33:65
